<svg width="33" height="36" viewBox="0 0 33 36" fill="none" xmlns="http://www.w3.org/2000/svg">
<path d="M13.2002 0.610119C13.415 0.87107 13.5465 1.19043 13.5779 1.52692C13.6093 1.86342 13.539 2.20159 13.3762 2.49775C12.1043 4.83303 11.4401 7.45068 11.4446 10.1099C11.4446 18.9562 18.6563 26.1195 27.5445 26.1195C28.7039 26.1195 29.8325 25.9985 30.9171 25.7675C31.2496 25.6955 31.5959 25.7231 31.9129 25.8467C32.2298 25.9704 32.5033 26.1846 32.6992 26.4628C32.9059 26.7519 33.0114 27.1014 32.999 27.4567C32.9867 27.812 32.8573 28.1532 32.631 28.4274C30.9054 30.547 28.7286 32.2548 26.2593 33.4263C23.7899 34.5978 21.0903 35.2034 18.3571 35.1991C8.21494 35.1991 0 27.0282 0 16.9608C0 9.38387 4.65088 2.88496 11.273 0.13051C11.6029 -0.00890181 11.9691 -0.0375156 12.3166 0.0489675C12.6641 0.135451 12.9742 0.332361 13.2002 0.610119Z" fill="black"/>
</svg>
