<svg width="275" height="224" viewBox="0 0 275 224" fill="none" xmlns="http://www.w3.org/2000/svg">
<path fill-rule="evenodd" clip-rule="evenodd" d="M117.315 36.7543C127.558 73.5504 111.127 98.505 76.2562 107.511C64.9208 110.484 53.0523 110.801 41.5741 108.439C40.7491 108.267 57.0418 156.182 67.7318 187.668L74.7782 208.377C75.1465 209.511 75.2843 210.707 75.1835 211.895C75.0827 213.082 74.7453 214.238 74.1912 215.293C73.6371 216.349 72.8775 217.282 71.9571 218.04C71.0366 218.797 69.974 219.363 68.8317 219.703L58.6402 222.969C56.2922 223.747 53.7322 223.571 51.5133 222.477C49.2944 221.384 47.5948 219.462 46.7816 217.125L3.17966 85.7699C-8.78208 49.0426 14.5571 11.7138 47.2456 3.27525C82.1168 -5.71323 105.731 3.27525 117.315 36.7543ZM102.397 74.9253C109.787 73.0004 112.038 57.8592 107.415 41.0853C102.792 24.3286 93.0474 12.2981 85.6572 14.223C78.267 16.1478 76.0156 31.3062 80.6388 48.063C85.2619 64.8197 95.0066 76.8501 102.397 74.9253ZM157.703 36.7543C147.46 73.5504 163.89 98.505 198.761 107.511C210.097 110.483 221.965 110.8 233.443 108.439C234.268 108.267 217.975 156.182 207.285 187.668L200.239 208.377C199.871 209.511 199.733 210.707 199.834 211.895C199.934 213.082 200.272 214.238 200.826 215.293C201.38 216.349 202.14 217.282 203.06 218.04C203.981 218.797 205.043 219.363 206.185 219.703L216.377 222.969C221.344 224.55 226.689 221.938 228.236 217.125L271.82 85.7699C283.782 49.0426 260.443 11.7138 227.754 3.27525C192.883 -5.71323 169.286 3.27525 157.703 36.7543ZM172.62 74.9253C165.23 73.0004 162.979 57.8592 167.602 41.0853C172.225 24.3286 181.97 12.2981 189.36 14.223C196.75 16.1478 199.002 31.3062 194.378 48.063C189.755 64.8197 180.011 76.8501 172.62 74.9253Z" fill="url(#paint0_linear_107_38)"/>
<defs>
<linearGradient id="paint0_linear_107_38" x1="137.5" y1="0" x2="137.5" y2="223.447" gradientUnits="userSpaceOnUse">
<stop stop-color="white"/>
<stop offset="1" stop-color="#1E1E1E" stop-opacity="0.54"/>
</linearGradient>
</defs>
</svg>
